<svg width="17" height="17" viewBox="0 0 17 17" fill="none" xmlns="http://www.w3.org/2000/svg">
<g clip-path="url(#clip0_359_2030)">
<path d="M16.8506 4.94393L12.2486 0.162681C12.0992 0.00662624 11.8668 -0.0431785 11.6676 0.036509C11.465 0.119517 11.3355 0.312095 11.3355 0.527915V2.82889H11.1562C7.34785 2.82889 4.25 5.92674 4.25 9.73514V10.7976C4.25 11.0433 4.42266 11.2492 4.66504 11.3056C4.70488 11.3156 4.74141 11.3189 4.78125 11.3189C4.98379 11.3189 5.17305 11.2027 5.26602 11.0168C6.26211 9.0246 8.26426 7.78612 10.4922 7.78612H11.3322V10.0937C11.3322 10.3096 11.465 10.5055 11.6643 10.5851C11.8635 10.6648 12.0959 10.6183 12.2453 10.459L16.8506 5.67772C17.0498 5.47518 17.0498 5.14979 16.8506 4.94393Z" fill="#A5A9AE"/>
<path d="M14.875 17H2.125C0.95293 17 0 16.0471 0 14.875V4.95728C0 3.78521 0.95293 2.83228 2.125 2.83228H4.25C4.6418 2.83228 4.95723 3.15103 4.95723 3.5395C4.95723 3.92798 4.6418 4.25005 4.25 4.25005H2.125C1.7332 4.25005 1.41777 4.5688 1.41777 4.95728V14.875C1.41777 15.2668 1.73652 15.5823 2.125 15.5823H14.875C15.2668 15.5823 15.5822 15.2635 15.5822 14.875V9.20727C15.5822 8.81548 15.8977 8.50005 16.2895 8.50005C16.6812 8.50005 16.9967 8.8188 16.9967 9.20727V14.875C17 16.0471 16.0471 17 14.875 17Z" fill="#A5A9AE"/>
</g>
<defs>
<clipPath id="clip0_359_2030">
<rect width="17" height="17" fill="white"/>
</clipPath>
</defs>
</svg>
