<svg width="24" height="17" viewBox="0 0 24 17" fill="none" xmlns="http://www.w3.org/2000/svg">
<g clip-path="url(#clip0_1264_213)">
<path fill-rule="evenodd" clip-rule="evenodd" d="M13.2 4.85714H1.2C0.54 4.85714 0 5.40357 0 6.07143C0 6.73929 0.54 7.28571 1.2 7.28571H13.2C13.86 7.28571 14.4 6.73929 14.4 6.07143C14.4 5.40357 13.86 4.85714 13.2 4.85714ZM13.2 0H1.2C0.54 0 0 0.546429 0 1.21429C0 1.88214 0.54 2.42857 1.2 2.42857H13.2C13.86 2.42857 14.4 1.88214 14.4 1.21429C14.4 0.546429 13.86 0 13.2 0ZM19.2 9.71429V6.07143C19.2 5.40357 18.66 4.85714 18 4.85714C17.34 4.85714 16.8 5.40357 16.8 6.07143V9.71429H13.2C12.54 9.71429 12 10.2607 12 10.9286C12 11.5964 12.54 12.1429 13.2 12.1429H16.8V15.7857C16.8 16.4536 17.34 17 18 17C18.66 17 19.2 16.4536 19.2 15.7857V12.1429H22.8C23.46 12.1429 24 11.5964 24 10.9286C24 10.2607 23.46 9.71429 22.8 9.71429H19.2ZM1.2 12.1429H8.4C9.06 12.1429 9.6 11.5964 9.6 10.9286C9.6 10.2607 9.06 9.71429 8.4 9.71429H1.2C0.54 9.71429 0 10.2607 0 10.9286C0 11.5964 0.54 12.1429 1.2 12.1429Z" fill="#82888F"/>
</g>
<defs>
<clipPath id="clip0_1264_213">
<rect width="24" height="17" fill="white"/>
</clipPath>
</defs>
</svg>
