<svg width="17" height="17" viewBox="0 0 17 17" fill="none" xmlns="http://www.w3.org/2000/svg">
<g clip-path="url(#clip0_1264_227)">
<path fill-rule="evenodd" clip-rule="evenodd" d="M4.19626 0H12.8023C13.2812 0 13.672 0.388753 13.672 0.861898V1.757H3.32657V0.861898C3.32657 0.38737 3.71744 0 4.19626 0ZM1.56766 5.30973H15.4323C16.295 5.30973 17 6.00838 17 6.86336V15.4464C17 16.3014 16.295 17 15.4323 17H1.56766C0.70496 17 0 16.3014 0 15.4464V6.86336C0 6.00838 0.70496 5.30973 1.56766 5.30973ZM7.55354 8.07666L11.3631 10.7094C11.4259 10.7495 11.4832 10.8021 11.5278 10.8657C11.7065 11.1217 11.6409 11.4731 11.3827 11.6501L7.58983 14.2497C7.49212 14.3299 7.36648 14.377 7.22828 14.377C6.91279 14.377 6.65733 14.1238 6.65733 13.8111V8.53874H6.66013C6.66013 8.42668 6.69363 8.31462 6.76203 8.21639C6.94211 7.96045 7.29668 7.89819 7.55354 8.07666ZM2.53227 2.60229H14.4663C14.9451 2.60229 15.336 2.99105 15.336 3.46419V4.39388H1.66259V3.46419C1.66259 2.98966 2.05346 2.60229 2.53227 2.60229Z" fill="#82888F"/>
</g>
<defs>
<clipPath id="clip0_1264_227">
<rect width="17" height="17" fill="white"/>
</clipPath>
</defs>
</svg>
