<svg width="16" height="16" viewBox="0 0 16 16" fill="none" xmlns="http://www.w3.org/2000/svg">
<g clip-path="url(#clip0_1195_42)">
<path d="M14.25 2.6875H11.8275V1.75C11.8275 1.46821 11.7156 1.19796 11.5163 0.9987C11.3171 0.799443 11.0468 0.6875 10.765 0.6875H1.75C1.46841 0.68816 1.19854 0.800315 0.999427 0.999427C0.800315 1.19854 0.68816 1.46841 0.6875 1.75V14.25C0.68816 14.5316 0.800315 14.8015 0.999427 15.0006C1.19854 15.1997 1.46841 15.3118 1.75 15.3125H12.8125C13.4755 15.3125 14.1114 15.0491 14.5803 14.5803C15.0491 14.1114 15.3125 13.4755 15.3125 12.8125V3.75C15.3118 3.4684 15.1997 3.19855 15.0006 2.99942C14.8015 2.80032 14.5316 2.68815 14.25 2.6875ZM3.635 2.75C3.635 2.66713 3.66793 2.58763 3.72653 2.52903C3.78513 2.47043 3.86462 2.4375 3.9475 2.4375H8.4475C8.52863 2.4401 8.60558 2.47417 8.66203 2.5325C8.7185 2.59083 8.75005 2.66883 8.75 2.75V5.3225C8.75 5.40538 8.71707 5.48488 8.65847 5.54348C8.59987 5.60208 8.52037 5.635 8.4375 5.635H3.9375C3.85463 5.635 3.77513 5.60208 3.71653 5.54348C3.65793 5.48488 3.625 5.40538 3.625 5.3225L3.635 2.75ZM2.385 6.545H4.4725C4.55537 6.545 4.63487 6.57793 4.69347 6.63653C4.75207 6.69513 4.785 6.77463 4.785 6.8575C4.785 6.94038 4.75207 7.01987 4.69347 7.07847C4.63487 7.13707 4.55537 7.17 4.4725 7.17H2.3925C2.30962 7.17 2.23014 7.13707 2.17153 7.07847C2.11293 7.01987 2.08 6.94038 2.08 6.8575C2.08 6.77463 2.11293 6.69513 2.17153 6.63653C2.23014 6.57793 2.30962 6.545 2.3925 6.545H2.385ZM9.885 14.0275H2.385C2.30212 14.0275 2.22264 13.9946 2.16403 13.936C2.10543 13.8774 2.0725 13.7979 2.0725 13.715C2.0725 13.6321 2.10543 13.5526 2.16403 13.494C2.22264 13.4354 2.30212 13.4025 2.385 13.4025H9.885C9.96788 13.4025 10.0474 13.4354 10.106 13.494C10.1646 13.5526 10.1975 13.6321 10.1975 13.715C10.1975 13.7979 10.1646 13.8774 10.106 13.936C10.0474 13.9946 9.96788 14.0275 9.885 14.0275ZM9.885 12.655H2.385C2.30212 12.655 2.22264 12.6221 2.16403 12.5635C2.10543 12.5049 2.0725 12.4254 2.0725 12.3425C2.0725 12.2596 2.10543 12.1801 2.16403 12.1215C2.22264 12.0629 2.30212 12.03 2.385 12.03H9.885C9.96788 12.03 10.0474 12.0629 10.106 12.1215C10.1646 12.1801 10.1975 12.2596 10.1975 12.3425C10.1975 12.4254 10.1646 12.5049 10.106 12.5635C10.0474 12.6221 9.96788 12.655 9.885 12.655ZM9.885 11.285H2.385C2.30212 11.285 2.22264 11.2521 2.16403 11.1935C2.10543 11.1349 2.0725 11.0554 2.0725 10.9725C2.0725 10.8896 2.10543 10.8101 2.16403 10.7515C2.22264 10.6929 2.30212 10.66 2.385 10.66H9.885C9.96788 10.66 10.0474 10.6929 10.106 10.7515C10.1646 10.8101 10.1975 10.8896 10.1975 10.9725C10.1975 11.0554 10.1646 11.1349 10.106 11.1935C10.0474 11.2521 9.96788 11.285 9.885 11.285ZM9.885 9.9125H2.385C2.30212 9.9125 2.22264 9.87958 2.16403 9.82098C2.10543 9.76238 2.0725 9.68288 2.0725 9.6C2.0725 9.51713 2.10543 9.43763 2.16403 9.37903C2.22264 9.32043 2.30212 9.2875 2.385 9.2875H9.885C9.96788 9.2875 10.0474 9.32043 10.106 9.37903C10.1646 9.43763 10.1975 9.51713 10.1975 9.6C10.1975 9.68288 10.1646 9.76238 10.106 9.82098C10.0474 9.87958 9.96788 9.9125 9.885 9.9125ZM9.885 8.54H2.385C2.30212 8.54 2.22264 8.50707 2.16403 8.44847C2.10543 8.38987 2.0725 8.31037 2.0725 8.2275C2.0725 8.14462 2.10543 8.06513 2.16403 8.00653C2.22264 7.94793 2.30212 7.915 2.385 7.915H9.885C9.96788 7.915 10.0474 7.94793 10.106 8.00653C10.1646 8.06513 10.1975 8.14462 10.1975 8.2275C10.1975 8.31037 10.1646 8.38987 10.106 8.44847C10.0474 8.50707 9.96788 8.54 9.885 8.54ZM14.6875 12.8125C14.6875 13.3098 14.4899 13.7867 14.1383 14.1383C13.7867 14.4899 13.3098 14.6875 12.8125 14.6875H11.8275V3.3125H14.25C14.3658 3.31315 14.4767 3.35945 14.5586 3.44138C14.6406 3.52328 14.6868 3.63418 14.6875 3.75V12.8125Z" fill="#A5A9AE"/>
</g>
<defs>
<clipPath id="clip0_1195_42">
<rect width="16" height="16" fill="white"/>
</clipPath>
</defs>
</svg>
