<svg width="15" height="21" viewBox="0 0 15 21" fill="none" xmlns="http://www.w3.org/2000/svg">
<path d="M11.906 9.95604C13.22 9.12332 14.002 7.52307 14.002 5.65733C14.002 3.49048 12.9766 1.72101 11.3213 0.977416C10.357 0.527793 9.40816 0.4375 8.18988 0.4375H0.9375C0.592305 0.4375 0.3125 0.759275 0.3125 1.15625V2.64087C0.3125 3.03785 0.592305 3.35962 0.9375 3.35962H2.23098V17.6686H0.9375C0.592305 17.6686 0.3125 17.9904 0.3125 18.3873V19.8438C0.3125 20.2407 0.592305 20.5625 0.9375 20.5625H8.58164C9.52707 20.5625 10.333 20.5046 11.1936 20.2218C13.1844 19.538 14.6875 17.447 14.6875 14.7233C14.6875 12.3798 13.6495 10.6047 11.906 9.95604ZM5.55535 3.52853H8.18988C8.82637 3.52853 9.26551 3.61923 9.6557 3.83027C10.274 4.21116 10.6286 5.02079 10.6286 6.05148C10.6286 7.62504 9.83484 8.60259 8.55715 8.60259H5.55535V3.52853ZM9.95543 17.251C9.55934 17.4332 9.06961 17.4715 8.72852 17.4715H5.55535V11.6654H8.85094C10.3996 11.6654 11.3141 12.8055 11.3141 14.498C11.3141 15.775 10.7805 16.8557 9.95543 17.251Z" fill="#000E46"/>
</svg>
