<?xml version="1.0" encoding="UTF-8"?>
<svg width="36px" height="36px" viewBox="0 0 36 36" version="1.1" xmlns="http://www.w3.org/2000/svg" xmlns:xlink="http://www.w3.org/1999/xlink">
    <title>Save_Inactive</title>
    <g id="Symbols" stroke="none" stroke-width="1" fill="none" fill-rule="evenodd">
        <g id="Save-/-Inactive" transform="translate(0.333333, 0.000000)" fill-rule="nonzero">
            <g id="Like_Inactive">
                <rect id="Rectangle_1183" x="0" y="0" width="35.3333333" height="36"></rect>
                <path d="M21.8707045,9.77961606 L13.9508565,9.77933333 C12.6203963,9.81559257 11.5870493,10.9054565 11.620808,12.2153841 L11.6205591,25.5293333 L11.6277108,25.6356659 C11.7029974,26.1870424 12.3566146,26.4787671 12.8217759,26.1284188 L17.9,22.302 L22.9803088,26.1284188 C23.4745657,26.5006813 24.1815256,26.1480349 24.1815256,25.5292706 L24.1804104,12.1959992 C24.2139202,10.9054565 23.1805731,9.81559257 21.8707045,9.77961606 Z M21.8295214,11.2790506 L21.9389824,11.2888652 C22.3685293,11.3545838 22.6921439,11.7311089 22.6806593,12.1767398 L22.681,24.025 L18.3522591,20.7648204 L18.2597435,20.7051998 C18.0045418,20.5660852 17.6873021,20.5859587 17.4498255,20.7648204 L13.12,24.025 L13.1205591,12.196062 C13.1078685,11.693973 13.488703,11.2923096 13.971448,11.2790506 L21.8295214,11.2790506 Z" id="Icon_feather-bookmark" fill="#4D6392"></path>
            </g>
        </g>
    </g>
</svg>