<?xml version="1.0" encoding="UTF-8"?>
<svg width="23px" height="21px" viewBox="0 0 23 21" version="1.1" xmlns="http://www.w3.org/2000/svg" xmlns:xlink="http://www.w3.org/1999/xlink">
    <title>Icons / Calendar Stroke</title>
    <g id="Icons-/-Calendar-Stroke" stroke="none" stroke-width="1" fill="none" fill-rule="evenodd">
        <rect id="Rectangle" x="0" y="0" width="23" height="21"></rect>
        <path d="M14.5538473,3.95 C15.2786271,3.95 15.5565299,4.06920869 15.7592389,4.25429076 C15.9370009,4.41659523 16.0563227,4.63204207 16.0867868,4.8720667 L16.0944733,4.99399491 L16.0944733,5.59743334 L16.630031,5.59743334 C17.056315,5.59743334 17.4651821,5.75232638 17.7665712,6.02750933 C18.0318478,6.26971836 18.1950318,6.58765998 18.2316829,6.92551227 L18.2395723,7.07136238 L18.2395723,16.2717233 C18.2395723,16.6630396 18.0697461,17.0387659 17.7665712,17.3155762 C17.5028556,17.55636 17.1568524,17.7050491 16.7888952,17.7384591 L16.630031,17.7456522 L6.55954066,17.7456522 C6.13325666,17.7456522 5.72439025,17.5907591 5.4230011,17.3155762 C5.15772455,17.0733672 4.99454049,16.7554255 4.95788943,16.4175733 L4.95,16.2717233 L4.95,7.07136238 C4.95,6.68004596 5.11982626,6.30431958 5.4230011,6.02750933 C5.68671668,5.78672554 6.03271945,5.63803646 6.40067653,5.60462643 L6.55954066,5.59743334 L7.09509838,5.59743334 L7.09509838,4.99399491 C7.09509838,4.70533787 7.22294284,4.4436468 7.43033471,4.254289 C7.63600163,4.06650616 7.92000111,3.95 8.23375948,3.95 C8.72331091,3.95 9.09253917,4.05486768 9.34571629,4.22369392 C9.5975527,4.39162613 9.73687523,4.62273613 9.76777092,4.88150441 L9.77438546,4.99399491 L9.77438546,5.59743334 L13.4157969,5.59743334 L13.4151862,4.99399491 C13.4151862,4.70526141 13.5429364,4.44351257 13.7503393,4.25414471 C13.9559084,4.06645121 14.2398365,3.95 14.5538473,3.95 Z M17.5010971,9.0716799 L5.68827918,9.0716799 L5.68827918,16.2723256 L5.69582167,16.3760107 C5.72079748,16.5469488 5.80696909,16.7068264 5.94189938,16.8300283 C6.1055994,16.9794986 6.32803176,17.0633879 6.55944337,17.0633879 L6.55944337,17.0633879 L16.6299337,17.0633879 L16.7673107,17.053467 C16.9479771,17.0272068 17.1165119,16.949599 17.2474766,16.8300271 C17.4094005,16.6821906 17.5010971,16.4815158 17.5010971,16.2723256 L17.5010971,16.2723256 L17.5010971,9.0716799 Z M12.2951856,14.0131803 L12.2951856,15.3006712 L10.8939573,15.3006712 L10.8939573,14.0131803 L12.2951856,14.0131803 Z M15.7396301,14.0131803 L15.7396301,15.3006712 L14.3384017,15.3006712 L14.3384017,14.0131803 L15.7396301,14.0131803 Z M8.91603582,14.0131803 L8.91603582,15.3006712 L7.51545059,15.3006712 L7.51545059,14.0131803 L8.91603582,14.0131803 Z M8.91554274,10.9278696 L8.91554274,12.2159477 L7.51495586,12.2159477 L7.51495586,10.9278696 L8.91554274,10.9278696 Z M12.2946926,10.9278696 L12.2946926,12.2159477 L10.8934642,12.2159477 L10.8934642,10.9278696 L12.2946926,10.9278696 Z M15.6738424,10.9278696 L15.6738424,12.2159477 L14.2732571,12.2159477 L14.2732571,10.9278696 L15.6738424,10.9278696 Z M7.09382364,6.28148967 L6.55883156,6.28148967 L6.42143845,6.29140787 C6.24075115,6.31765481 6.07219787,6.39518612 5.94121923,6.51432581 C5.77936616,6.66210481 5.68766902,6.86277417 5.68766902,7.07196465 L5.68766902,7.07196465 L5.68766902,8.38825595 L17.4998586,8.38825595 L17.4998586,7.07196465 L17.4923161,6.96827956 C17.4673403,6.7973416 17.3811687,6.63746396 17.2462384,6.51426203 C17.0844305,6.36651875 16.8652314,6.28342347 16.6367126,6.28152301 L16.6367126,6.28152301 L16.0924636,6.46301997 L16.0798536,6.58515247 C16.0386452,6.82530288 15.9013176,7.03912396 15.6644665,7.19706349 C15.4112914,7.36588839 15.0420656,7.47075725 14.5525115,7.47075725 C14.2279803,7.47075725 13.9353197,7.34631012 13.7277337,7.11954048 C13.5431907,6.91794332 13.4253659,6.63479433 13.4146496,6.2841256 L13.4146496,6.2841256 L9.77123079,6.47428132 L9.75746582,6.59451298 C9.71436284,6.83090021 9.57763155,7.04125183 9.34385057,7.19714412 C9.09074967,7.36591953 8.72155126,7.47075725 8.23176408,7.47075725 C7.90723289,7.47075725 7.61457221,7.34631012 7.40698622,7.11954048 C7.22198106,6.91743844 7.10402873,6.63337558 7.09382364,6.28148967 L7.09382364,6.28148967 Z M8.84795484,4.73164962 C8.72003803,4.6699836 8.52325799,4.63727596 7.83280187,4.99399491 L7.83280187,4.99399491 L7.83280187,6.42674728 L7.84084688,6.4989905 C7.85666038,6.5689774 7.89494985,6.63148772 7.94824954,6.68015283 C8.02094221,6.74652464 8.12145959,6.78728814 8.23244021,6.78728814 L8.23244021,6.78728814 L8.6344051,6.78728814 L8.71540792,6.77988179 C8.79390627,6.7653059 8.86407743,6.72993176 8.9185971,6.68015293 C8.98966361,6.61526612 9.03404509,6.52576555 9.03404509,6.42674728 L9.03404509,6.42674728 L9.03404509,4.99399491 L9.02948215,4.94122652 C9.02326241,4.90680247 9.01041546,4.87403126 8.9893114,4.84377126 C8.95924164,4.8006558 8.91297738,4.76299562 8.84795484,4.73164962 Z M15.1687534,4.73164962 C15.0408366,4.6699836 14.8440565,4.63727595 14.1535988,4.99399491 L14.1535988,4.99399491 L14.1535988,6.42674728 L14.1616438,6.49899054 C14.1774573,6.56897748 14.2157469,6.63148782 14.2690468,6.68015293 C14.3417397,6.7465247 14.4422574,6.78728814 14.5532388,6.78728814 L14.5532388,6.78728814 L14.9552037,6.78728814 L15.0362065,6.77988179 C15.1147048,6.7653059 15.184876,6.72993176 15.2393957,6.68015293 C15.3104622,6.61526612 15.3548437,6.52576555 15.3548437,6.42674728 L15.3548437,6.42674728 L15.3548437,4.99399491 L15.3502807,4.94122652 C15.344061,4.90680247 15.331214,4.87403126 15.31011,4.84377126 C15.2800402,4.8006558 15.233776,4.76299562 15.1687534,4.73164962 Z" id="Fill-1" stroke="#6F7789" stroke-width="0.1" fill="#6F7789"></path>
    </g>
</svg>