<svg width="20" height="19" viewBox="0 0 20 19" fill="none" xmlns="http://www.w3.org/2000/svg">
<path d="M2.66732 15.25V11.7042C2.66732 11.3229 2.52245 10.9573 2.26459 10.6877C2.00673 10.4181 1.65699 10.2667 1.29232 10.2667H0.833984V8.73333H1.29232C1.47289 8.73333 1.65168 8.69615 1.81851 8.62391C1.98533 8.55167 2.13691 8.44578 2.26459 8.3123C2.39227 8.17881 2.49355 8.02035 2.56265 7.84594C2.63175 7.67154 2.66732 7.48461 2.66732 7.29583V3.75C2.66732 2.9875 2.95705 2.25624 3.47277 1.71707C3.9885 1.1779 4.68797 0.875 5.41732 0.875H6.33399V2.79167H5.41732C5.1742 2.79167 4.94105 2.89263 4.76914 3.07236C4.59723 3.25208 4.50065 3.49583 4.50065 3.75V7.67917C4.50075 8.08264 4.37905 8.47585 4.1529 8.80278C3.92675 9.12972 3.60769 9.37371 3.24115 9.5C3.60769 9.62629 3.92675 9.87028 4.1529 10.1972C4.37905 10.5242 4.50075 10.9174 4.50065 11.3208V15.25C4.50065 15.5042 4.59723 15.7479 4.76914 15.9276C4.94105 16.1074 5.1742 16.2083 5.41732 16.2083H6.33399V18.125H5.41732C4.68797 18.125 3.9885 17.8221 3.47277 17.2829C2.95705 16.7438 2.66732 16.0125 2.66732 15.25ZM17.334 11.7042V15.25C17.334 16.0125 17.0443 16.7438 16.5285 17.2829C16.0128 17.8221 15.3133 18.125 14.584 18.125H13.6673V16.2083H14.584C14.8271 16.2083 15.0603 16.1074 15.2322 15.9276C15.4041 15.7479 15.5007 15.5042 15.5007 15.25V11.3208C15.5006 10.9174 15.6223 10.5242 15.8484 10.1972C16.0746 9.87028 16.3936 9.62629 16.7602 9.5C16.3936 9.37371 16.0746 9.12972 15.8484 8.80278C15.6223 8.47585 15.5006 8.08264 15.5007 7.67917V3.75C15.5007 3.49583 15.4041 3.25208 15.2322 3.07236C15.0603 2.89263 14.8271 2.79167 14.584 2.79167H13.6673V0.875H14.584C15.3133 0.875 16.0128 1.1779 16.5285 1.71707C17.0443 2.25624 17.334 2.9875 17.334 3.75V7.29583C17.334 7.67708 17.4789 8.04272 17.7367 8.3123C17.9946 8.58188 18.3443 8.73333 18.709 8.73333H19.1673V10.2667H18.709C18.3443 10.2667 17.9946 10.4181 17.7367 10.6877C17.4789 10.9573 17.334 11.3229 17.334 11.7042Z" fill="#000E46"/>
</svg>
