<svg width="43" height="45" viewBox="0 0 43 45" fill="none" xmlns="http://www.w3.org/2000/svg">
<g clip-path="url(#clip0_53_909)">
<path fill-rule="evenodd" clip-rule="evenodd" d="M33.7074 5.98096C39.3156 9.85096 43 16.3033 43 23.5865C43 35.381 33.3409 45 21.5011 45C9.65908 45 0 35.381 0 23.5865C0 16.0153 3.98161 9.34196 9.96742 5.53271C7.97885 10.953 4.72341 14.3909 6.19584 20.1599C7.43814 25.0289 11.3326 28.2552 14.8606 27.3417C17.8926 26.5564 19.6935 22.9616 19.3517 18.8778C19.0143 14.8526 16.5878 12.6427 13.5692 9.84595L15.77 6.93457L20.0622 11.3829L18.1719 5.31409L21.7424 0L25.018 5.22729L23.0316 11.7004L27.3216 7.02026L29.3392 9.70862C27.0401 12.5729 24.1265 14.3305 24.0661 18.3647C24.0192 21.526 25.4112 26.5699 28.3874 27.3417C31.9154 28.2552 35.8076 25.0289 37.0522 20.1599C38.3526 15.0659 35.2937 10.58 33.7074 5.98096Z" fill="#2A86FD"/>
</g>
<defs>
<clipPath id="clip0_53_909">
<rect width="43" height="45" fill="white"/>
</clipPath>
</defs>
</svg>
