<svg width="16" height="17" viewBox="0 0 16 17" fill="none" xmlns="http://www.w3.org/2000/svg">
<path d="M14.1328 1.125H12.2709V0.351562C12.2709 0.258322 12.2339 0.168902 12.168 0.102971C12.102 0.0370407 12.0126 0 11.9194 0C11.8261 0 11.7367 0.0370407 11.6708 0.102971C11.6049 0.168902 11.5678 0.258322 11.5678 0.351562V1.125H8.01562V0.351562C8.01562 0.258322 7.97858 0.168902 7.91266 0.102971C7.84673 0.0370407 7.7573 0 7.66406 0C7.57083 0 7.48139 0.0370407 7.41547 0.102971C7.34954 0.168902 7.3125 0.258322 7.3125 0.351562V1.125H3.76031V0.351562C3.76031 0.258322 3.72327 0.168902 3.65735 0.102971C3.59142 0.0370407 3.50198 0 3.40875 0C3.31552 0 3.22608 0.0370407 3.16015 0.102971C3.09423 0.168902 3.05719 0.258322 3.05719 0.351562V1.125H1.19531C0.878524 1.12574 0.574923 1.25192 0.350919 1.47592C0.126917 1.69992 0.0007425 2.00352 0 2.32031V15.2578C0.0007425 15.5746 0.126917 15.8782 0.350919 16.1022C0.574923 16.3262 0.878524 16.4524 1.19531 16.4531H12.3637C13.1497 16.4524 13.9033 16.1398 14.4591 15.5841C15.0148 15.0283 15.3274 14.2747 15.3281 13.4887V2.32031C15.3274 2.00352 15.2012 1.69992 14.9772 1.47592C14.7532 1.25192 14.4496 1.12574 14.1328 1.125ZM12.0122 8.05219L7.56844 13.2075C7.47152 13.3188 7.35238 13.4086 7.2187 13.4711C7.08503 13.5335 6.93973 13.5674 6.79219 13.5703H6.76687C6.62335 13.5698 6.48141 13.5404 6.3495 13.4839C6.21757 13.4274 6.0984 13.3448 5.99906 13.2413L3.34969 10.4766C3.20498 10.3247 3.10857 10.1334 3.0726 9.92683C3.03663 9.7202 3.06276 9.50754 3.14767 9.31579C3.23255 9.124 3.37241 8.96172 3.54954 8.84945C3.7267 8.73717 3.93314 8.67994 4.14281 8.685C4.28223 8.68776 4.4197 8.71827 4.54719 8.77477C4.67468 8.83128 4.78963 8.91262 4.88531 9.01406L6.45469 10.6594C6.48914 10.6953 6.53068 10.7235 6.57669 10.7424C6.62271 10.7613 6.67215 10.7704 6.72187 10.7691C6.77177 10.7682 6.82087 10.7567 6.86599 10.7353C6.91107 10.714 6.95112 10.6833 6.98344 10.6453L10.4091 6.66844C10.4999 6.56317 10.6106 6.47685 10.7348 6.41436C10.8591 6.35189 10.9944 6.31448 11.1331 6.3043C11.2717 6.29409 11.4111 6.31133 11.5431 6.35498C11.6751 6.39866 11.7972 6.46788 11.9025 6.55875C12.0078 6.64962 12.0941 6.76032 12.1566 6.88452C12.219 7.00875 12.2565 7.14406 12.2666 7.28274C12.2768 7.42143 12.2596 7.56076 12.216 7.69278C12.1723 7.8248 12.1031 7.94692 12.0122 8.05219ZM12.5437 15.7416V13.6687H14.6166C14.573 14.2039 14.3406 14.7062 13.9609 15.0859C13.5812 15.4656 13.0789 15.698 12.5437 15.7416ZM14.625 3.86719H0.703125V2.32031C0.703865 2.19001 0.755955 2.06525 0.848098 1.9731C0.940244 1.88096 1.065 1.82886 1.19531 1.82812H3.05719V2.60156C3.05719 2.6948 3.09423 2.78423 3.16015 2.85016C3.22608 2.91608 3.31552 2.95312 3.40875 2.95312C3.50198 2.95312 3.59142 2.91608 3.65735 2.85016C3.72327 2.78423 3.76031 2.6948 3.76031 2.60156V1.82812H7.3125V2.60156C7.3125 2.6948 7.34954 2.78423 7.41547 2.85016C7.48139 2.91608 7.57083 2.95312 7.66406 2.95312C7.7573 2.95312 7.84673 2.91608 7.91266 2.85016C7.97858 2.78423 8.01562 2.6948 8.01562 2.60156V1.82812H11.5678V2.60156C11.5678 2.6948 11.6049 2.78423 11.6708 2.85016C11.7367 2.91608 11.8261 2.95312 11.9194 2.95312C12.0126 2.95312 12.102 2.91608 12.168 2.85016C12.2339 2.78423 12.2709 2.6948 12.2709 2.60156V1.82812H14.1328C14.2631 1.82886 14.3879 1.88096 14.48 1.9731C14.5722 2.06525 14.6243 2.19001 14.625 2.32031V3.86719Z" fill="#82888F"/>
</svg>
