<svg width="24" height="18" viewBox="0 0 24 18" fill="none" xmlns="http://www.w3.org/2000/svg">
<g clip-path="url(#clip0_1264_174)">
<path fill-rule="evenodd" clip-rule="evenodd" d="M15.1111 1H1.8889C0.850008 1 7.62939e-06 1.85 7.62939e-06 2.88889V16.1111C7.62939e-06 17.15 0.850008 18 1.8889 18H15.1111C16.15 18 17 17.15 17 16.1111V2.88889C17 1.85 16.15 1 15.1111 1ZM4.72223 14.2222C4.20279 14.2222 3.77779 13.7972 3.77779 13.2778V8.55556C3.77779 8.03611 4.20279 7.61111 4.72223 7.61111C5.24167 7.61111 5.66667 8.03611 5.66667 8.55556V13.2778C5.66667 13.7972 5.24167 14.2222 4.72223 14.2222ZM8.50001 14.2222C7.98056 14.2222 7.55556 13.7972 7.55556 13.2778V5.72222C7.55556 5.20278 7.98056 4.77778 8.50001 4.77778C9.01945 4.77778 9.44445 5.20278 9.44445 5.72222V13.2778C9.44445 13.7972 9.01945 14.2222 8.50001 14.2222ZM12.2778 14.2222C11.7583 14.2222 11.3333 13.7972 11.3333 13.2778V11.3889C11.3333 10.8694 11.7583 10.4444 12.2778 10.4444C12.7972 10.4444 13.2222 10.8694 13.2222 11.3889V13.2778C13.2222 13.7972 12.7972 14.2222 12.2778 14.2222Z" fill="#82888F"/>
</g>
<g clip-path="url(#clip1_1264_174)">
<circle cx="17.5" cy="6.49998" r="5.41667" fill="white"/>
<path d="M17.5 2C15.0147 2 13 4.01471 13 6.5C13 8.98529 15.0147 11 17.5 11C19.9853 11 22 8.98529 22 6.5C22 4.01471 19.9853 2 17.5 2ZM16.7801 8.50211L14.8725 6.5945L15.5294 5.93763L16.7801 7.18837L19.4706 4.49789L20.1275 5.15476L16.7801 8.50211Z" fill="#82888F"/>
</g>
<defs>
<clipPath id="clip0_1264_174">
<rect width="17" height="17" fill="white" transform="translate(0 1)"/>
</clipPath>
<clipPath id="clip1_1264_174">
<rect width="13" height="13" fill="white" transform="translate(11)"/>
</clipPath>
</defs>
</svg>
