<svg width="17" height="17" viewBox="0 0 17 17" fill="none" xmlns="http://www.w3.org/2000/svg">
<path fill-rule="evenodd" clip-rule="evenodd" d="M5.8375 14.3125C5.8375 15.625 7.13425 16.5 8.1475 16.5C8.85275 16.5 8.90787 15.9645 9.01637 14.9075C9.0645 14.4437 9.12225 13.8802 9.25 13.2187C9.58775 11.467 10.755 9.22875 11.8715 8.55937L11.8715 3.375C11.875 1.40625 11.2188 0.75 8.375 0.749999L5.07363 0.749999C3.16963 0.749999 2.7085 2.00387 2.537 2.4685L2.52563 2.5C2.42588 2.76775 2.21238 2.97862 1.96738 3.2175C1.69613 3.48525 1.38638 3.78887 1.15625 4.25C0.884126 4.79512 0.920001 5.27987 0.952376 5.71125C0.972501 5.97287 0.990876 6.21437 0.937501 6.4375C0.881501 6.67375 0.80975 6.85312 0.740625 7.02462C0.6155 7.33612 0.500001 7.62487 0.500001 8.1875C0.500001 9.5 1.1545 10.3732 2.52563 10.3732L6.1875 10.3732C6.1875 10.3732 5.8375 13 5.8375 14.3125ZM14.9375 9.5C15.2856 9.5 15.6194 9.36172 15.8656 9.11558C16.1117 8.86944 16.25 8.5356 16.25 8.1875L16.25 2.0625C16.25 1.7144 16.1117 1.38056 15.8656 1.13442C15.6194 0.888282 15.2856 0.75 14.9375 0.75C14.5894 0.75 14.2556 0.888282 14.0094 1.13442C13.7633 1.38056 13.625 1.7144 13.625 2.0625L13.625 8.1875C13.625 8.5356 13.7633 8.86944 14.0094 9.11558C14.2556 9.36172 14.5894 9.5 14.9375 9.5Z" fill="#000000"/>
</svg>
