<svg width="20" height="20" viewBox="0 0 20 20" fill="none" xmlns="http://www.w3.org/2000/svg">
<path d="M10 0.3125C4.64844 0.3125 0.3125 4.64844 0.3125 10C0.3125 15.3516 4.64844 19.6875 10 19.6875C15.3516 19.6875 19.6875 15.3516 19.6875 10C19.6875 4.64844 15.3516 0.3125 10 0.3125ZM13.125 6.875C13.8164 6.875 14.375 7.43359 14.375 8.125C14.375 8.81641 13.8164 9.375 13.125 9.375C12.4336 9.375 11.875 8.81641 11.875 8.125C11.875 7.43359 12.4336 6.875 13.125 6.875ZM6.875 6.875C7.56641 6.875 8.125 7.43359 8.125 8.125C8.125 8.81641 7.56641 9.375 6.875 9.375C6.18359 9.375 5.625 8.81641 5.625 8.125C5.625 7.43359 6.18359 6.875 6.875 6.875ZM14.4844 13.5234C13.3711 14.8594 11.7383 15.625 10 15.625C8.26172 15.625 6.62891 14.8594 5.51562 13.5234C4.98438 12.8867 5.94531 12.0898 6.47656 12.7227C7.35156 13.7734 8.63281 14.3711 10 14.3711C11.3672 14.3711 12.6484 13.7695 13.5234 12.7227C14.0469 12.0898 15.0117 12.8867 14.4844 13.5234Z" fill="#000E46"/>
</svg>
