<svg width="22" height="20" viewBox="0 0 22 20" fill="none" xmlns="http://www.w3.org/2000/svg">
<path d="M20.5625 18.0171H11.1325L20.2211 8.9285C20.5784 8.56664 20.7787 8.07858 20.7787 7.57006C20.7787 7.06155 20.5784 6.57348 20.2211 6.21162L14.6113 0.605367C14.2503 0.246341 13.7619 0.0447998 13.2528 0.0447998C12.7437 0.0447998 12.2553 0.246341 11.8944 0.605367L0.796896 11.7244C0.437866 12.0854 0.236328 12.5738 0.236328 13.0829C0.236328 13.592 0.437866 14.0804 0.796896 14.4413L5.55501 19.203C5.62272 19.279 5.70577 19.3398 5.7987 19.3813C5.8916 19.4228 5.9923 19.4441 6.09407 19.4438H20.5625C20.7366 19.4224 20.8968 19.338 21.0131 19.2066C21.1293 19.0752 21.1934 18.9059 21.1934 18.7305C21.1934 18.555 21.1293 18.3857 21.0131 18.2543C20.8968 18.1229 20.7366 18.0385 20.5625 18.0171ZM12.9114 1.62241C13.0029 1.5322 13.1262 1.48163 13.2546 1.48163C13.3831 1.48163 13.5064 1.5322 13.5978 1.62241L19.2041 7.22866C19.2941 7.31951 19.3446 7.4422 19.3446 7.57006C19.3446 7.69793 19.2941 7.82062 19.2041 7.91147L16.5303 10.578L10.2413 4.29256L12.9114 1.62241Z" fill="#000E46"/>
</svg>
