<svg width="36" height="17" viewBox="0 0 36 17" fill="none" xmlns="http://www.w3.org/2000/svg">
<path d="M14.0621 8.46959C14.1563 8.56852 14.2553 8.65803 14.3589 8.75225C15.2745 9.57429 16.4615 10.029 17.6919 10.029C18.9224 10.029 20.1094 9.57429 21.025 8.75225C21.1286 8.65803 21.2275 8.56852 21.3171 8.46959C21.4066 8.37066 21.5055 8.26702 21.5903 8.16338C22.1852 7.4274 22.5595 6.53806 22.6701 5.59821C22.7807 4.65837 22.623 3.70643 22.2152 2.85248C21.8074 1.99853 21.1662 1.27746 20.3657 0.772673C19.5653 0.267885 18.6383 0 17.6919 0C16.7456 0 15.8186 0.267885 15.0182 0.772673C14.2177 1.27746 13.5765 1.99853 13.1687 2.85248C12.7609 3.70643 12.6032 4.65837 12.7138 5.59821C12.8244 6.53806 13.1987 7.4274 13.7936 8.16338C13.8784 8.26231 13.9726 8.37066 14.0621 8.46959Z" fill="#A5A9AE"/>
<path d="M24.7844 7.2068C24.8644 7.29159 24.9492 7.37168 25.034 7.45177C25.8128 8.1536 26.824 8.54201 27.8724 8.54201C28.9208 8.54201 29.932 8.1536 30.7108 7.45177C30.8003 7.37168 30.8804 7.29159 30.9605 7.2068C31.0423 7.12492 31.1194 7.03841 31.1913 6.94769C31.7049 6.32569 32.0304 5.57009 32.1296 4.76959C32.2287 3.96908 32.0975 3.15689 31.7513 2.42835C31.4051 1.69981 30.8582 1.08514 30.1749 0.656499C29.4916 0.227856 28.7002 0.00302511 27.8936 0.00839476C27.087 0.00302511 26.2956 0.227856 25.6123 0.656499C24.929 1.08514 24.3821 1.69981 24.0359 2.42835C23.6897 3.15689 23.5585 3.96908 23.6577 4.76959C23.7569 5.57009 24.0823 6.32569 24.5959 6.94769C24.6289 7.0372 24.7043 7.12671 24.7844 7.2068Z" fill="#A5A9AE"/>
<path d="M10.5425 7.23536C10.4625 7.32016 10.3777 7.40025 10.2929 7.48033C9.51407 8.18216 8.50287 8.57057 7.45449 8.57057C6.40612 8.57057 5.39492 8.18216 4.61612 7.48033C4.52661 7.40025 4.44652 7.32016 4.36643 7.23536C4.28458 7.15349 4.20751 7.06698 4.1356 6.97625C3.62203 6.35425 3.29655 5.59865 3.19735 4.79815C3.09816 3.99765 3.22937 3.18546 3.57559 2.45692C3.92181 1.72837 4.46867 1.11371 5.15198 0.685063C5.83528 0.256421 6.62669 0.0315896 7.43329 0.0369592C8.2399 0.0315896 9.0313 0.256421 9.71461 0.685063C10.3979 1.11371 10.9448 1.72837 11.291 2.45692C11.6372 3.18546 11.7684 3.99765 11.6692 4.79815C11.57 5.59865 11.2446 6.35425 10.731 6.97625C10.698 7.06576 10.6226 7.15527 10.5425 7.23536Z" fill="#A5A9AE"/>
<path d="M9.64355 16.5159H25.741C25.8449 16.5161 25.9477 16.4944 26.0427 16.4522C26.1377 16.41 26.2227 16.3482 26.2922 16.271C26.3494 16.2078 26.3922 16.133 26.4174 16.0516C26.4426 15.9702 26.4497 15.8843 26.4382 15.7999C26.2563 14.3907 25.7374 13.0461 24.9255 11.88C24.1137 10.7139 23.0328 9.76059 21.7744 9.10083C21.2384 9.63713 20.6021 10.0626 19.9016 10.3528C19.2012 10.6431 18.4505 10.7925 17.6923 10.7925C16.9341 10.7925 16.1833 10.6431 15.4829 10.3528C14.7825 10.0626 14.1461 9.63713 13.6102 9.10083C12.3509 9.76001 11.2691 10.7131 10.4564 11.8792C9.64367 13.0454 9.12407 14.3902 8.94161 15.7999C8.93044 15.8843 8.93772 15.9701 8.96293 16.0514C8.98814 16.1328 9.03069 16.2077 9.08765 16.271C9.15768 16.3488 9.24345 16.4109 9.33929 16.4532C9.43512 16.4954 9.53882 16.5168 9.64355 16.5159Z" fill="#A5A9AE"/>
<path d="M35.3231 13.4445C35.1681 12.2451 34.7268 11.1006 34.0364 10.1077C33.346 9.11472 32.4268 8.30247 31.3564 7.7395C30.9007 8.19758 30.359 8.56109 29.7623 8.80914C29.1657 9.05718 28.5259 9.18488 27.8797 9.18488C27.2336 9.18488 26.5938 9.05718 25.9971 8.80914C25.4005 8.56109 24.8587 8.19758 24.403 7.7395C23.8741 8.02105 23.3794 8.36248 22.9285 8.75708C24.8563 9.95819 26.2492 11.8537 26.8197 14.0522H34.7248C34.8135 14.053 34.9014 14.0349 34.9826 13.9992C35.0638 13.9635 35.1365 13.9109 35.1959 13.845C35.2449 13.7915 35.2817 13.7279 35.3037 13.6588C35.3256 13.5896 35.3323 13.5165 35.3231 13.4445Z" fill="#A5A9AE"/>
<path fill-rule="evenodd" clip-rule="evenodd" d="M22.8393 10.083C23.0195 10.2177 23.0533 10.4688 22.9146 10.6439L18.7969 15.8439C18.7247 15.9351 18.6155 15.9917 18.4973 15.9992C18.379 16.0066 18.2632 15.9642 18.1794 15.8829L16.1206 13.8829C15.9598 13.7266 15.9598 13.4734 16.1206 13.3172C16.2814 13.161 16.5421 13.161 16.7029 13.3172L18.4301 14.995L22.2618 10.1561C22.4005 9.98103 22.659 9.94828 22.8393 10.083Z" fill="white"/>
<path d="M0.00405326 13.4728C0.159061 12.2734 0.600394 11.1289 1.29079 10.136C1.98118 9.14304 2.90036 8.33079 3.97071 7.76782C4.42643 8.2259 4.96818 8.58941 5.56483 8.83746C6.16148 9.0855 6.80127 9.2132 7.44742 9.2132C8.09358 9.2132 8.73337 9.0855 9.33002 8.83746C9.92667 8.58941 10.4684 8.2259 10.9241 7.76782C11.453 8.04937 11.9478 8.39081 12.3987 8.7854C10.4709 9.98651 9.07793 11.882 8.5074 14.0806H0.60235C0.513625 14.0813 0.425748 14.0633 0.344534 14.0275C0.26332 13.9918 0.190621 13.9392 0.13125 13.8733C0.0822293 13.8198 0.0454558 13.7562 0.0234889 13.6871C0.00152202 13.6179 -0.00511071 13.5448 0.00405326 13.4728Z" fill="#A5A9AE"/>
</svg>
