<svg width="16" height="21" viewBox="0 0 16 21" fill="none" xmlns="http://www.w3.org/2000/svg">
<path fill-rule="evenodd" clip-rule="evenodd" d="M1.58268 20.0833C1.07642 20.0833 0.666016 19.6542 0.666016 19.125C0.666016 18.5957 1.07642 18.1666 1.58268 18.1666H5.42993L8.6896 2.83329H5.24935C4.74309 2.83329 4.33268 2.40423 4.33268 1.87496C4.33268 1.34569 4.74309 0.916626 5.24935 0.916626H14.416C14.9223 0.916626 15.3327 1.34569 15.3327 1.87496C15.3327 2.40423 14.9223 2.83329 14.416 2.83329H10.5679L7.30818 18.1666H10.7493C11.2556 18.1666 11.666 18.5957 11.666 19.125C11.666 19.6542 11.2556 20.0833 10.7493 20.0833H1.58268Z" fill="black"/>
</svg>
