<svg width="20" height="20" viewBox="0 0 20 20" fill="none" xmlns="http://www.w3.org/2000/svg">
<path d="M17.5 0.78125H2.5C2.04441 0.782075 1.60772 0.963422 1.28557 1.28557C0.963422 1.60772 0.782075 2.04441 0.78125 2.5V17.5C0.782075 17.9556 0.963422 18.3923 1.28557 18.7144C1.60772 19.0366 2.04441 19.2179 2.5 19.2188H17.5C17.9556 19.2179 18.3923 19.0366 18.7144 18.7144C19.0366 18.3923 19.2179 17.9556 19.2188 17.5V2.5C19.2179 2.04441 19.0366 1.60772 18.7144 1.28557C18.3923 0.963422 17.9556 0.782075 17.5 0.78125ZM10.3594 3.225C10.8056 3.225 11.2418 3.35731 11.6129 3.60525C11.9839 3.85316 12.2731 4.20553 12.4439 4.61781C12.6147 5.03009 12.6593 5.48375 12.5723 5.92144C12.4852 6.35909 12.2703 6.76113 11.9548 7.07666C11.6392 7.39219 11.2372 7.60709 10.7996 7.69416C10.3619 7.78122 9.90822 7.73653 9.49594 7.56575C9.08366 7.39497 8.73128 7.10578 8.48337 6.73475C8.23544 6.36372 8.10313 5.9275 8.10313 5.48125C8.10394 4.88313 8.34194 4.30972 8.76487 3.88675C9.18784 3.46381 9.76125 3.22581 10.3594 3.225ZM2.5 18.2812C2.2928 18.2812 2.09408 18.1989 1.94757 18.0524C1.80106 17.9059 1.71875 17.7072 1.71875 17.5V14.2062L6.20312 9.72188L14.7625 18.2812H2.5ZM18.2812 17.5C18.2812 17.7072 18.1989 17.9059 18.0524 18.0524C17.9059 18.1989 17.7072 18.2812 17.5 18.2812H16.0875L11.7844 13.9781L14.0406 11.7188L18.2812 15.9594V17.5Z" fill="#000E46"/>
</svg>
