<svg width="21" height="21" viewBox="0 0 21 21" fill="none" xmlns="http://www.w3.org/2000/svg">
<path fill-rule="evenodd" clip-rule="evenodd" d="M13.9125 3.9375C13.9125 2.625 12.6158 1.75 11.6025 1.75C10.8973 1.75 10.8421 2.2855 10.7336 3.3425C10.6855 3.80625 10.6277 4.36975 10.5 5.03125C10.1623 6.783 8.995 9.02125 7.8785 9.69062V14.875C7.875 16.8438 8.53125 17.5 11.375 17.5H14.6764C16.5804 17.5 17.0415 16.2461 17.213 15.7815L17.2244 15.75C17.3241 15.4823 17.5376 15.2714 17.7826 15.0325C18.0539 14.7648 18.3636 14.4611 18.5938 14C18.8659 13.4549 18.83 12.9701 18.7976 12.5387C18.7775 12.2771 18.7591 12.0356 18.8125 11.8125C18.8685 11.5763 18.9403 11.3969 19.0094 11.2254C19.1345 10.9139 19.25 10.6251 19.25 10.0625C19.25 8.75 18.5955 7.87675 17.2244 7.87675H13.5625C13.5625 7.87675 13.9125 5.25 13.9125 3.9375ZM4.8125 8.75C4.4644 8.75 4.13056 8.88828 3.88442 9.13442C3.63828 9.38056 3.5 9.7144 3.5 10.0625V16.1875C3.5 16.5356 3.63828 16.8694 3.88442 17.1156C4.13056 17.3617 4.4644 17.5 4.8125 17.5C5.1606 17.5 5.49444 17.3617 5.74058 17.1156C5.98672 16.8694 6.125 16.5356 6.125 16.1875V10.0625C6.125 9.7144 5.98672 9.38056 5.74058 9.13442C5.49444 8.88828 5.1606 8.75 4.8125 8.75Z" fill="#A5A9AE"/>
</svg>
