<svg width="16" height="18" viewBox="0 0 16 18" fill="none" xmlns="http://www.w3.org/2000/svg">
<path d="M14.83 1.31646C13.2698 -0.438819 10.7321 -0.438819 9.17182 1.31646L5.83771 5.0673C5.62921 5.30186 5.44577 5.58052 5.26352 5.92158C4.96088 6.12602 4.71314 6.33243 4.50407 6.56763L1.16995 10.3185C-0.389984 12.0734 -0.389984 14.929 1.16995 16.6839C1.95008 17.5615 2.97441 18 3.99906 18C5.02372 18 6.04837 17.5615 6.82818 16.6839L10.1623 12.9331C10.3714 12.6979 10.5548 12.4192 10.7366 12.0787C11.0397 11.8737 11.2874 11.6673 11.4959 11.4327L14.83 7.6819C16.39 5.92699 16.39 3.07137 14.83 1.31646ZM7.5308 5.28493C7.5308 5.28493 7.50417 5.28516 7.488 5.28424C7.15983 5.26987 6.8337 5.29166 6.51628 5.36572L9.6429 1.84827C10.9424 0.386353 13.0576 0.386353 14.3571 1.84827C15.6569 3.31055 15.6569 5.68945 14.3571 7.15173L11.0238 10.9017C10.8392 11.1094 10.6182 11.2939 10.3288 11.4825C9.73405 11.8696 9.05436 12.0359 8.36263 11.9652C7.5651 11.8835 6.85514 11.5155 6.30957 10.9017C6.17936 10.7552 5.96842 10.7552 5.83822 10.9017C5.70801 11.0482 5.70801 11.2855 5.83822 11.432C6.34005 11.9966 6.95654 12.385 7.64453 12.5823L5.41439 15.0912C4.65918 15.9408 3.34082 15.9408 2.58561 15.0912C1.80566 14.2137 1.80566 12.7863 2.58561 11.9088L5.91895 8.15881C6.11361 7.94019 6.34701 7.77063 6.61361 7.65491C7.37533 7.32458 8.20052 7.54321 8.74772 8.15881C8.87793 8.3053 9.08887 8.3053 9.21908 8.15881C9.34928 8.01233 9.34928 7.77502 9.21908 7.62854C8.48665 6.80493 7.3776 6.51855 6.3737 6.95544C6.01986 7.10852 5.70833 7.33521 5.44759 7.62854L2.11426 11.3785C1.07454 12.5482 1.07454 14.4518 2.11426 15.6215C2.61784 16.188 3.28744 16.5 4 16.5C4.71257 16.5 5.38216 16.188 5.88574 15.6215L8.46432 12.7206C8.5343 12.7246 8.60437 12.7313 8.67415 12.7313C8.95072 12.7313 9.22258 12.6903 9.48995 12.6273L6.3571 16.1517C5.05762 17.6136 2.94238 17.6136 1.6429 16.1517C0.343099 14.6895 0.343099 12.3105 1.6429 10.8483L4.97624 7.09827C5.16113 6.89026 5.38216 6.70569 5.67122 6.51746C6.26595 6.13037 6.94466 5.96338 7.63737 6.03479C8.4349 6.11646 9.14486 6.4845 9.69043 7.09827C9.82064 7.24475 10.0316 7.24475 10.1618 7.09827C10.292 6.95178 10.292 6.71448 10.1618 6.56799C9.65995 6.00343 9.04346 5.61502 8.35547 5.41772L10.5856 2.90881C11.3408 2.0592 12.6592 2.0592 13.4144 2.90881C14.1943 3.78625 14.1943 5.21375 13.4144 6.09119L10.0811 9.84119C9.88639 10.0598 9.653 10.2294 9.38639 10.3451C8.62533 10.6772 7.80013 10.4575 7.25228 9.84119C7.12207 9.6947 6.91113 9.6947 6.78092 9.84119C6.65072 9.98767 6.65072 10.225 6.78092 10.3715C7.28451 10.938 7.9541 11.25 8.66667 11.25C8.98991 11.25 9.31315 11.1808 9.6263 11.0446C9.98014 10.8915 10.2917 10.6648 10.5524 10.3715L13.8857 6.62146C14.9255 5.45178 14.9255 3.54822 13.8857 2.37854C12.8786 1.24548 11.1214 1.24548 10.1143 2.37854L7.58276 5.22647" fill="#000E46"/>
</svg>
