<svg width="14" height="4" viewBox="0 0 14 4" fill="none" xmlns="http://www.w3.org/2000/svg">
<path d="M1.56471 3.52175C1.1734 3.52175 0.76036 3.34784 0.477751 3.06523C0.195143 2.78262 0.0429688 2.39131 0.0429688 2.00001C0.0429688 1.60871 0.216882 1.2174 0.477751 0.913054C0.76036 0.630445 1.15166 0.478271 1.56471 0.478271C1.95601 0.478271 2.34732 0.652185 2.62993 0.913054C2.91253 1.19566 3.08645 1.58697 3.08645 2.00001C3.08645 2.39131 2.91253 2.78262 2.62993 3.06523C2.34732 3.34784 1.95601 3.52175 1.56471 3.52175ZM8.06471 3.06523C8.34732 2.78262 8.52123 2.39131 8.52123 2.00001C8.52123 1.60871 8.34732 1.2174 8.06471 0.913054C7.7821 0.630445 7.39079 0.478271 6.99949 0.478271C6.60819 0.478271 6.19514 0.652185 5.91253 0.913054C5.62993 1.19566 5.47775 1.58697 5.47775 2.00001C5.47775 2.39131 5.65166 2.78262 5.91253 3.06523C6.19514 3.34784 6.58645 3.52175 6.99949 3.52175C7.39079 3.52175 7.7821 3.34784 8.06471 3.06523ZM13.4995 3.06523C13.7821 2.78262 13.956 2.39131 13.956 2.00001C13.956 1.60871 13.7821 1.2174 13.4995 0.913054C13.2169 0.630445 12.8256 0.478271 12.4343 0.478271C12.043 0.478271 11.6299 0.652185 11.3473 0.913054C11.0647 1.19566 10.9125 1.58697 10.9125 2.00001C10.9125 2.39131 11.0864 2.78262 11.3473 3.06523C11.6299 3.34784 12.0212 3.52175 12.4343 3.52175C12.8256 3.52175 13.2169 3.34784 13.4995 3.06523Z" fill="#5B626A"/>
</svg>
