<svg width="19" height="19" viewBox="0 0 19 19" fill="none" xmlns="http://www.w3.org/2000/svg">
<path d="M9.5 0.0371094C12.3277 0.0371094 14.8549 1.27656 16.5916 3.23594L19 0.827539V7.16211H12.6654L14.8994 4.92812C13.5969 3.39551 11.6709 2.41211 9.5 2.41211C5.5627 2.41211 2.375 5.5998 2.375 9.53711C2.375 13.4744 5.5627 16.6621 9.5 16.6621C11.4668 16.6621 13.248 15.8643 14.5395 14.5766L16.2168 16.2539C14.4949 17.9721 12.1199 19.0371 9.5 19.0371C4.25273 19.0371 0 14.7844 0 9.53711C0 4.28984 4.25273 0.0371094 9.5 0.0371094Z" fill="#000E46"/>
</svg>
