<svg width="22" height="22" viewBox="0 0 22 22" fill="none" xmlns="http://www.w3.org/2000/svg">
<path d="M11 0.25C8.15014 0.253968 5.41814 1.38783 3.40298 3.40298C1.38783 5.41814 0.253968 8.15014 0.25 11C0.84 25.26 21.16 25.255 21.75 11C21.746 8.15014 20.6122 5.41814 18.597 3.40298C16.5819 1.38783 13.8499 0.253968 11 0.25ZM16.15 15.09C16.2825 15.2322 16.3546 15.4202 16.3512 15.6145C16.3477 15.8088 16.269 15.9942 16.1316 16.1316C15.9942 16.269 15.8088 16.3477 15.6145 16.3512C15.4202 16.3546 15.2322 16.2825 15.09 16.15L11 12.06L6.91 16.15C6.76783 16.2825 6.57978 16.3546 6.38548 16.3512C6.19118 16.3477 6.00579 16.269 5.86838 16.1316C5.73097 15.9942 5.65225 15.8088 5.64882 15.6145C5.6454 15.4202 5.71752 15.2322 5.85 15.09L9.94 11L5.85 6.91C5.77631 6.84134 5.71721 6.75854 5.67622 6.66654C5.63523 6.57454 5.61318 6.47522 5.61141 6.37452C5.60963 6.27382 5.62816 6.17379 5.66588 6.0804C5.7036 5.98701 5.75974 5.90218 5.83096 5.83096C5.90218 5.75974 5.98701 5.7036 6.0804 5.66588C6.17379 5.62816 6.27382 5.60963 6.37452 5.61141C6.47522 5.61318 6.57454 5.63523 6.66654 5.67622C6.75854 5.71721 6.84134 5.77631 6.91 5.85L11 9.94L15.09 5.85C15.2322 5.71752 15.4202 5.6454 15.6145 5.64882C15.8088 5.65225 15.9942 5.73097 16.1316 5.86838C16.269 6.00579 16.3477 6.19118 16.3512 6.38548C16.3546 6.57978 16.2825 6.76783 16.15 6.91L12.06 11L16.15 15.09Z" fill="#82888F"/>
</svg>
