<svg width="26" height="26" viewBox="0 0 26 26" fill="none" xmlns="http://www.w3.org/2000/svg">
<path fill-rule="evenodd" clip-rule="evenodd" d="M13 0C5.824 0 0 5.824 0 13C0 20.176 5.824 26 13 26C20.176 26 26 20.176 26 13C26 5.824 20.176 0 13 0ZM9.477 18.577L4.81 13.91C4.303 13.403 4.303 12.584 4.81 12.077C5.317 11.57 6.136 11.57 6.643 12.077L10.4 15.821L19.344 6.877C19.851 6.37 20.67 6.37 21.177 6.877C21.684 7.384 21.684 8.203 21.177 8.71L11.31 18.577C10.816 19.084 9.984 19.084 9.477 18.577Z" fill="white"/>
</svg>
