<svg width="18" height="18" viewBox="0 0 18 18" fill="none" xmlns="http://www.w3.org/2000/svg">
<path d="M9.00001 4.58447L6.39282 9.09853H11.6072L9.00001 4.58447ZM8.71876 5.90635C8.71876 5.83176 8.74839 5.76022 8.80114 5.70747C8.85388 5.65473 8.92542 5.6251 9.00001 5.6251C9.0746 5.6251 9.14614 5.65473 9.19888 5.70747C9.25163 5.76022 9.28126 5.83176 9.28126 5.90635V7.3126C9.28126 7.38719 9.25163 7.45873 9.19888 7.51147C9.14614 7.56422 9.0746 7.59385 9.00001 7.59385C8.92542 7.59385 8.85388 7.56422 8.80114 7.51147C8.74839 7.45873 8.71876 7.38719 8.71876 7.3126V5.90635ZM9.00001 8.71885C8.90677 8.71885 8.81735 8.68181 8.75142 8.61588C8.68549 8.54995 8.64845 8.46053 8.64845 8.36729C8.64845 8.27405 8.68549 8.18462 8.75142 8.11869C8.81735 8.05276 8.90677 8.01572 9.00001 8.01572C9.09325 8.01572 9.18267 8.05276 9.2486 8.11869C9.31453 8.18462 9.35157 8.27405 9.35157 8.36729C9.35157 8.46053 9.31453 8.54995 9.2486 8.61588C9.18267 8.68181 9.09325 8.71885 9.00001 8.71885Z" fill="#A5A9AE"/>
<path d="M4.78128 10.9688H16.5938V3.25125C16.593 2.98593 16.4873 2.73169 16.2997 2.54408C16.1121 2.35647 15.8578 2.25074 15.5925 2.25H2.40753C2.14221 2.25074 1.88797 2.35647 1.70036 2.54408C1.51275 2.73169 1.40702 2.98593 1.40628 3.25125V10.9688H3.09378C3.16837 10.9688 3.23991 10.9984 3.29265 11.0511C3.3454 11.1039 3.37503 11.1754 3.37503 11.25C3.37503 11.3246 3.3454 11.3961 3.29265 11.4489C3.23991 11.5016 3.16837 11.5312 3.09378 11.5312H1.40628C1.36128 12.3244 1.40628 13.1625 2.40753 13.2188H15.5925C16.5825 13.1597 16.6416 12.33 16.5938 11.5312H4.78128C4.70669 11.5312 4.63515 11.5016 4.5824 11.4489C4.52966 11.3961 4.50003 11.3246 4.50003 11.25C4.50003 11.1754 4.52966 11.1039 4.5824 11.0511C4.63515 10.9984 4.70669 10.9688 4.78128 10.9688ZM5.66159 9.23906L8.75534 3.89531C8.77987 3.85203 8.81544 3.81603 8.85843 3.79098C8.90142 3.76593 8.95028 3.75273 9.00003 3.75273C9.04978 3.75273 9.09864 3.76593 9.14163 3.79098C9.18461 3.81603 9.22019 3.85203 9.24472 3.89531L12.3385 9.25313C12.3632 9.29588 12.3761 9.34438 12.3761 9.39375C12.3761 9.44312 12.3632 9.49162 12.3385 9.53438C12.3137 9.5773 12.278 9.61291 12.235 9.6376C12.1921 9.66229 12.1433 9.6752 12.0938 9.675H5.90628C5.85468 9.67682 5.80358 9.6644 5.75857 9.6391C5.71356 9.61381 5.67638 9.57661 5.65111 9.53158C5.62584 9.48656 5.61345 9.43545 5.6153 9.38385C5.61715 9.33226 5.63316 9.28216 5.66159 9.23906ZM9.00003 11.8125C9.14921 11.8125 9.29229 11.8718 9.39778 11.9773C9.50327 12.0827 9.56253 12.2258 9.56253 12.375C9.56253 12.5242 9.50327 12.6673 9.39778 12.7727C9.29229 12.8782 9.14921 12.9375 9.00003 12.9375C8.85084 12.9375 8.70777 12.8782 8.60228 12.7727C8.49679 12.6673 8.43753 12.5242 8.43753 12.375C8.43753 12.2258 8.49679 12.0827 8.60228 11.9773C8.70777 11.8718 8.85084 11.8125 9.00003 11.8125ZM4.13722 11.4497C4.09779 11.4888 4.04767 11.5153 3.99318 11.526C3.93869 11.5367 3.88225 11.531 3.831 11.5096C3.77974 11.4883 3.73595 11.4522 3.70515 11.406C3.67435 11.3598 3.65791 11.3055 3.65791 11.25C3.65791 11.1945 3.67435 11.1402 3.70515 11.094C3.73595 11.0478 3.77974 11.0117 3.831 10.9904C3.88225 10.969 3.93869 10.9633 3.99318 10.974C4.04767 10.9847 4.09779 11.0112 4.13722 11.0503C4.16358 11.0765 4.1845 11.1076 4.19878 11.1418C4.21306 11.1761 4.22041 11.2129 4.22041 11.25C4.22041 11.2871 4.21306 11.3239 4.19878 11.3582C4.1845 11.3924 4.16358 11.4235 4.13722 11.4497Z" fill="#A5A9AE"/>
<path d="M11.8125 15.7499H11.0953C11.34 14.8752 10.6987 13.8487 9.77625 13.7812C9.73969 13.7812 8.45438 13.7812 8.37 13.7812C7.38281 13.7446 6.64031 14.819 6.90188 15.7499H6.1875C6.11291 15.7499 6.04137 15.7796 5.98863 15.8323C5.93588 15.8851 5.90625 15.9566 5.90625 16.0312C5.90625 16.1058 5.93588 16.1773 5.98863 16.2301C6.04137 16.2828 6.11291 16.3124 6.1875 16.3124H11.8125C11.8871 16.3124 11.9586 16.2828 12.0114 16.2301C12.0641 16.1773 12.0938 16.1058 12.0938 16.0312C12.0938 15.9566 12.0641 15.8851 12.0114 15.8323C11.9586 15.7796 11.8871 15.7499 11.8125 15.7499Z" fill="#A5A9AE"/>
</svg>
