<svg width="16" height="16" viewBox="0 0 16 16" fill="none" xmlns="http://www.w3.org/2000/svg">
<path d="M8.25 3.25H7.75V5.3275H8.25V3.25Z" fill="#A5A9AE"/>
<path d="M8.25 5.78748H7.75V6.24998H8.25V5.78748Z" fill="#A5A9AE"/>
<path d="M15.13 5.72251L7.9875 10.2675L0.8525 5.72751L0.75 5.65751V14H14.75H15.25V5.64001L15.13 5.72001V5.72251Z" fill="#A5A9AE"/>
<path d="M1.1325 5.3125L2.75 6.3425V5H0.75V5.0575L1.1325 5.31V5.3125Z" fill="#A5A9AE"/>
<path d="M13.25 5V6.325L14.8525 5.305L15.25 5.04V5H13.25Z" fill="#A5A9AE"/>
<path d="M12.75 6.6425V1.25H3.25V6.66L8 9.675L12.75 6.6425ZM5.25 2H10.75V7.5H5.25V2Z" fill="#A5A9AE"/>
<path d="M9.75 6.5H9.125V7H10.25V5.875H9.75V6.5Z" fill="#A5A9AE"/>
<path d="M6.25 5.875H5.75V7H6.875V6.5H6.25V5.875Z" fill="#A5A9AE"/>
<path d="M5.75 3.625H6.25V3H6.875V2.5H5.75V3.625Z" fill="#A5A9AE"/>
<path d="M9.125 3H9.75V3.625H10.25V2.5H9.125V3Z" fill="#A5A9AE"/>
</svg>
