<?xml version="1.0" encoding="UTF-8"?>
<svg width="37px" height="36px" viewBox="0 0 37 36" version="1.1" xmlns="http://www.w3.org/2000/svg" xmlns:xlink="http://www.w3.org/1999/xlink">
    <title>share</title>
    <g id="Symbols" stroke="none" stroke-width="1" fill="none" fill-rule="evenodd">
        <g id="Actions-Like-Comment" transform="translate(-367.666667, -4.000000)" fill-rule="nonzero">
            <g id="share" transform="translate(368.000000, 4.000000)">
                <rect id="Rectangle_1183" x="0" y="0" width="36" height="36"></rect>
                <path d="M19.625193,9.8813104 L19.5165004,9.8911053 C19.0107454,9.95899466 18.5362252,10.3347255 18.5362252,10.905889 L18.536,13.623 L18.2387254,13.6785749 C12.5059389,14.8191988 9.22706578,18.9883656 8.05161026,25.1180991 C7.90185006,25.9271768 8.96327118,26.6288734 9.56057628,25.8736903 L9.80052929,25.5773546 C12.1285425,22.7599976 14.7101884,21.3106841 18.248446,21.1094298 L18.536,21.097 L18.5362252,23.7054969 C18.5811423,24.1728668 18.8473698,24.5145713 19.2255,24.6526926 C19.6036303,24.7908139 20.0274233,24.7011562 20.3172169,24.4217289 L26.9741902,18.1325629 C27.2166326,17.9062678 27.3515777,17.5828569 27.3417774,17.2474559 C27.350727,16.9577896 27.2343761,16.6403586 27.0166379,16.3970384 L20.3619053,10.1673321 C20.2273899,10.0152719 20.0015758,9.90600771 19.7561831,9.88434851 L19.625193,9.8813104 Z M19.836,11.452 L26.022,17.243 L19.833,23.09 L19.8362252,20.6582894 C19.823437,20.2132928 19.5082863,19.8571903 19.0870496,19.7929992 L18.983877,19.7856022 L18.5927728,19.793207 C14.9730822,19.905438 12.2048093,21.1732067 9.7987532,23.6338288 L9.708,23.728 L9.7269235,23.661208 C11.1021621,18.7600803 14.1257973,15.6077342 19.117508,14.8439383 C19.5278373,14.7748211 19.8247046,14.4334238 19.835975,14.0273647 L19.836,11.452 Z" id="Icon_ionic-ios-share-alt" fill="#4D6392"></path>
            </g>
        </g>
    </g>
</svg>