<svg width="22" height="18" viewBox="0 0 22 18" fill="none" xmlns="http://www.w3.org/2000/svg">
<path fill-rule="evenodd" clip-rule="evenodd" d="M14.1656 5.424C14.1656 5.052 14.1044 4.716 13.9822 4.404C13.8722 4.08 13.6889 3.816 13.4444 3.588C13.2 3.36 12.8944 3.192 12.5278 3.06C12.1611 2.94 11.7211 2.868 11.2322 2.868C10.7556 2.868 10.3278 2.916 9.97333 3.024C9.61889 3.132 9.32555 3.276 9.09333 3.456C8.86111 3.648 8.67778 3.864 8.55556 4.116C8.43333 4.368 8.37222 4.632 8.37222 4.908C8.37222 5.484 8.67778 5.964 9.27667 6.36C9.74111 6.66 10.2178 6.936 11 7.2H5.36556C5.30444 7.104 5.23111 6.996 5.18222 6.9C4.86444 6.324 4.70556 5.664 4.70556 4.896C4.70556 4.164 4.86444 3.504 5.19444 2.892C5.51222 2.292 5.96444 1.776 6.55111 1.344C7.13778 0.924 7.83444 0.588 8.62889 0.348C9.43556 0.12 10.3278 0 11.2933 0C12.2833 0 13.1756 0.132 13.9944 0.408C14.8011 0.672 15.4978 1.056 16.06 1.536C16.6344 2.016 17.0744 2.592 17.38 3.252C17.6856 3.912 17.8444 4.632 17.8444 5.424H14.1656ZM20.7778 8.4H1.22222C0.55 8.4 0 8.94 0 9.6C0 10.26 0.55 10.8 1.22222 10.8H11.7578C11.9778 10.884 12.2467 10.968 12.43 11.04C12.8822 11.244 13.2367 11.448 13.4933 11.652C13.75 11.856 13.9211 12.084 14.0189 12.336C14.1044 12.576 14.1533 12.852 14.1533 13.164C14.1533 13.44 14.0922 13.704 13.9822 13.956C13.8722 14.196 13.7011 14.412 13.4689 14.592C13.2367 14.772 12.9556 14.904 12.6011 15.012C12.2467 15.108 11.8311 15.168 11.3667 15.168C10.8411 15.168 10.3522 15.12 9.92444 15.012C9.49667 14.904 9.11778 14.736 8.81222 14.508C8.50667 14.28 8.26222 13.98 8.09111 13.608C7.92 13.236 7.78556 12.696 7.78556 12.156H4.15556C4.15556 12.816 4.25333 13.512 4.44889 14.052C4.64444 14.592 4.90111 15.072 5.24333 15.504C5.58556 15.924 5.97667 16.296 6.44111 16.608C6.89333 16.92 7.39444 17.184 7.93222 17.388C8.47 17.592 9.03222 17.748 9.61889 17.856C10.2056 17.952 10.7922 18.012 11.3789 18.012C12.3567 18.012 13.2489 17.904 14.0433 17.676C14.8378 17.448 15.5222 17.136 16.0844 16.728C16.6467 16.32 17.0867 15.804 17.3922 15.204C17.6978 14.604 17.8567 13.92 17.8567 13.152C17.8567 12.432 17.7344 11.784 17.4778 11.22C17.4167 11.088 17.3433 10.944 17.27 10.824H20.7778C21.45 10.824 22 10.284 22 9.624V9.6C22 8.94 21.45 8.4 20.7778 8.4Z" fill="#000E46"/>
</svg>
