<svg width="17" height="18" viewBox="0 0 17 18" fill="none" xmlns="http://www.w3.org/2000/svg">
<path fill-rule="evenodd" clip-rule="evenodd" d="M3.86364 0C4.2904 0 4.63636 0.366316 4.63636 0.818182V9C4.63636 11.2593 6.36618 13.0909 8.5 13.0909C10.6338 13.0909 12.3636 11.2593 12.3636 9V0.818182C12.3636 0.366316 12.7096 0 13.1364 0C13.5631 0 13.9091 0.366316 13.9091 0.818182V9C13.9091 12.1631 11.4874 14.7273 8.5 14.7273C5.51264 14.7273 3.09091 12.1631 3.09091 9V0.818182C3.09091 0.366316 3.43687 0 3.86364 0ZM0 17.1818C0 16.7299 0.345965 16.3636 0.772727 16.3636H16.2273C16.654 16.3636 17 16.7299 17 17.1818C17 17.6337 16.654 18 16.2273 18H0.772727C0.345965 18 0 17.6337 0 17.1818Z" fill="#000E46"/>
</svg>
