<svg width="19" height="19" viewBox="0 0 19 19" fill="none" xmlns="http://www.w3.org/2000/svg">
<g clip-path="url(#clip0_461_6)">
<path d="M11.1177 10.6881C13.2696 9.11324 13.7799 6.03749 12.2548 3.81543C10.7297 1.59337 7.75102 1.06636 5.59912 2.64122C3.44722 4.21608 2.93685 7.29183 4.46199 9.51389C4.77537 9.97001 5.16038 10.3676 5.59912 10.6881C2.28322 11.6866 0.00596921 14.8209 0 18.3836C0 18.7226 0.268615 19 0.596921 19H16.1169C16.4452 19 16.7138 18.7226 16.7138 18.3836C16.7078 14.8209 14.4306 11.6866 11.1177 10.6881ZM4.25008 6.67236C4.25008 4.33011 6.0886 2.43165 8.3569 2.43165C10.6252 2.43165 12.4637 4.33011 12.4637 6.67236C12.4637 9.01462 10.6252 10.9131 8.3569 10.9131C6.0886 10.9131 4.25008 9.01153 4.25008 6.67236ZM0.253691 18.51C0.60886 14.2107 3.82626 10.9192 7.67939 10.9131H9.0344C12.8875 10.9192 16.1049 14.2107 16.4601 18.51H0.253691Z" fill="black"/>
<path d="M15.2475 4.65368C15.155 4.65368 15.0684 4.6167 15.0028 4.5489L13.1613 2.64735C13.027 2.50867 13.027 2.28369 13.1613 2.145C13.2956 2.00632 13.5135 2.00632 13.6478 2.145L15.2326 3.77842L18.3993 0.120185C18.5246 -0.0277464 18.7425 -0.0400741 18.8858 0.0924482C19.029 0.221889 19.041 0.446868 18.9126 0.5948L15.5042 4.53657C15.4415 4.61053 15.352 4.65368 15.2565 4.65676C15.2535 4.65676 15.2505 4.65676 15.2475 4.65676V4.65368Z" fill="#231F20"/>
</g>
<defs>
<clipPath id="clip0_461_6">
<rect width="19" height="19" fill="white"/>
</clipPath>
</defs>
</svg>
