<svg width="16" height="16" viewBox="0 0 16 16" fill="none" xmlns="http://www.w3.org/2000/svg">
<path d="M15.2501 8.6825C14.2516 7.46477 13.0466 6.43235 11.6901 5.6325L12.2901 5.03C12.319 5.0011 12.3419 4.9668 12.3575 4.92907C12.3732 4.89132 12.3812 4.85085 12.3812 4.81C12.3812 4.76915 12.3732 4.72868 12.3575 4.69093C12.3419 4.6532 12.319 4.6189 12.2901 4.59C12.2612 4.5611 12.2269 4.5382 12.1891 4.52255C12.1514 4.50693 12.1109 4.49888 12.0701 4.49888C12.0292 4.49888 11.9888 4.50693 11.951 4.52255C11.9133 4.5382 11.879 4.5611 11.8501 4.59L11.1001 5.3275C10.2283 4.89457 9.27899 4.6396 8.30759 4.5775V3.125C8.30759 3.04213 8.27467 2.96263 8.21604 2.90403C8.15744 2.84543 8.07797 2.8125 7.99509 2.8125C7.91219 2.8125 7.83272 2.84543 7.77412 2.90403C7.71552 2.96263 7.68259 3.04213 7.68259 3.125V4.5725C6.71119 4.6346 5.76189 4.88958 4.89009 5.3225L4.14009 4.585C4.08174 4.52665 4.00259 4.49388 3.92009 4.49388C3.83757 4.49388 3.75844 4.52665 3.70009 4.585C3.64174 4.64335 3.60897 4.72247 3.60897 4.805C3.60897 4.88752 3.64174 4.96665 3.70009 5.025L4.30009 5.6275C2.94677 6.4298 1.74512 7.46387 0.750081 8.6825C0.706258 8.7371 0.682373 8.805 0.682373 8.875C0.682373 8.945 0.706258 9.0129 0.750081 9.0675C0.880081 9.235 4.02259 13.1875 8.00009 13.1875C11.9776 13.1875 15.1151 9.235 15.2501 9.0675C15.2939 9.0129 15.3178 8.945 15.3178 8.875C15.3178 8.805 15.2939 8.7371 15.2501 8.6825ZM8.00009 11.1825C7.54272 11.1825 7.09562 11.0469 6.71532 10.7928C6.33504 10.5387 6.03864 10.1775 5.86362 9.75495C5.68859 9.3324 5.64279 8.86742 5.73202 8.41885C5.82124 7.97027 6.04149 7.55823 6.36489 7.23483C6.68832 6.9114 7.10034 6.69115 7.54894 6.60192C7.99752 6.5127 8.46249 6.5585 8.88504 6.73352C9.30759 6.90855 9.66874 7.20495 9.92287 7.58525C10.177 7.96552 10.3126 8.41262 10.3126 8.87C10.3129 9.174 10.2534 9.4751 10.1373 9.7561C10.0213 10.0371 9.85104 10.2925 9.63629 10.5077C9.42157 10.7229 9.16654 10.8937 8.88579 11.0103C8.60507 11.127 8.30409 11.1872 8.00009 11.1875V11.1825Z" fill="#A5A9AE"/>
</svg>
